<?xml version="1.0" standalone="no"?>
<!DOCTYPE svg PUBLIC "-//W3C//DTD SVG 20010904//EN"
 "http://www.w3.org/TR/2001/REC-SVG-20010904/DTD/svg10.dtd">
<svg version="1.0" xmlns="http://www.w3.org/2000/svg"
 width="225.000000pt" height="225.000000pt" viewBox="0 0 225.000000 225.000000"
 preserveAspectRatio="xMidYMid meet">
<metadata>
Created by potrace 1.11, written by Peter Selinger 2001-2013
</metadata>
<g transform="translate(0.000000,225.000000) scale(0.100000,-0.100000)"
fill="#000000" stroke="none">
<path d="M1158 2104 c-4 -3 -4 -30 -1 -60 5 -47 3 -57 -16 -73 -11 -10 -21
-25 -21 -32 0 -11 -19 -14 -86 -14 -84 0 -86 -1 -115 -33 -23 -25 -29 -42 -29
-77 0 -38 -3 -45 -20 -45 -34 0 -53 -42 -45 -101 8 -55 29 -89 56 -89 13 0 20
-15 28 -62 7 -43 18 -70 36 -88 25 -25 28 -25 210 -28 153 -3 189 -1 218 13
40 19 67 69 67 125 0 36 3 40 25 40 16 0 25 6 25 15 0 8 4 15 10 15 15 0 23
68 14 113 -8 36 -13 42 -37 45 -26 3 -27 6 -21 36 6 36 -12 82 -42 106 -11 10
-45 15 -102 16 -63 1 -87 5 -91 15 -2 8 -13 22 -24 31 -16 14 -18 27 -16 74 4
52 -6 76 -23 58z m249 -216 c23 -22 31 -58 13 -58 -5 0 -10 4 -10 9 0 5 -14
23 -32 40 -26 26 -29 31 -13 31 10 0 29 -10 42 -22z m-77 -19 c0 -6 -4 -7 -10
-4 -5 3 -10 11 -10 16 0 6 5 7 10 4 6 -3 10 -11 10 -16z m38 -14 c-3 -3 -9 2
-12 12 -6 14 -5 15 5 6 7 -7 10 -15 7 -18z m-278 11 c0 -2 -8 -10 -17 -17 -16
-13 -17 -12 -4 4 13 16 21 21 21 13z m255 -16 c-3 -6 0 -13 9 -16 8 -3 12 -12
9 -20 -4 -12 -8 -10 -18 8 -11 21 -11 38 1 38 3 0 2 -5 -1 -10z m-382 -15 c-3
-9 -8 -14 -10 -11 -3 3 -2 9 2 15 9 16 15 13 8 -4z m47 -6 c-7 -11 -14 -18
-17 -15 -3 3 0 12 7 21 18 21 23 19 10 -6z m231 -18 c21 -22 29 -39 29 -66 0
-47 -44 -95 -88 -95 -35 0 -80 33 -93 68 -13 35 6 89 39 107 43 23 80 18 113
-14z m199 -17 c0 -8 -4 -14 -10 -14 -5 0 -10 9 -10 21 0 11 5 17 10 14 6 -3
10 -13 10 -21z m-473 -6 c-3 -8 -6 -5 -6 6 -1 11 2 17 5 13 3 -3 4 -12 1 -19z
m83 8 c0 -3 -4 -8 -10 -11 -5 -3 -10 -1 -10 4 0 6 5 11 10 11 6 0 10 -2 10 -4z
m341 -37 c-5 -13 -10 -19 -10 -12 -1 15 10 45 15 40 3 -2 0 -15 -5 -28z m-34
-1 c-3 -8 -6 -5 -6 6 -1 11 2 17 5 13 3 -3 4 -12 1 -19z m143 -19 c0 -6 -4 -7
-10 -4 -5 3 -10 11 -10 16 0 6 5 7 10 4 6 -3 10 -11 10 -16z m-166 -23 c-4
-17 -1 -25 9 -28 11 -2 12 -8 4 -28 -9 -24 -10 -24 -19 15 -8 37 -5 65 7 65 3
0 3 -11 -1 -24z m-334 -12 c0 -22 -16 -17 -17 6 -1 11 2 18 8 15 5 -4 9 -13 9
-21z m32 -6 c-7 -7 -12 -8 -12 -2 0 14 12 26 19 19 2 -3 -1 -11 -7 -17z m278
-38 c0 -5 -5 -10 -11 -10 -5 0 -7 5 -4 10 3 6 8 10 11 10 2 0 4 -4 4 -10z
m-237 -25 c4 -8 1 -17 -6 -21 -7 -4 -9 -4 -5 1 4 4 0 14 -10 21 -15 12 -15 13
-1 14 9 0 19 -7 22 -15z m42 -38 c-7 -18 -35 -31 -35 -17 0 6 -5 10 -11 10 -6
0 -8 -7 -5 -16 3 -8 2 -12 -4 -9 -6 3 -10 1 -10 -6 0 -7 -2 -10 -5 -7 -10 9 7
38 27 49 16 8 19 8 13 -1 -5 -8 -3 -11 6 -8 8 3 13 13 12 23 -1 11 2 14 8 8 5
-5 7 -17 4 -26z m160 24 c-3 -6 1 -13 8 -18 8 -4 16 -18 19 -31 4 -12 2 -20
-3 -16 -5 3 -9 12 -9 20 0 8 -6 14 -14 14 -8 0 -13 8 -11 18 5 23 4 22 11 22
3 0 3 -4 -1 -9z m50 -11 c-3 -5 -12 -7 -20 -3 -21 7 -19 13 6 13 11 0 18 -4
14 -10z m-75 -4 c0 -2 -9 -6 -20 -9 -11 -3 -18 -1 -14 4 5 9 34 13 34 5z m105
-16 c3 -6 -1 -7 -9 -4 -18 7 -21 14 -7 14 6 0 13 -4 16 -10z m-25 -20 c0 -5
-2 -10 -4 -10 -3 0 -8 5 -11 10 -3 6 -1 10 4 10 6 0 11 -4 11 -10z m-373 -6
c-3 -3 -12 -4 -19 -1 -8 3 -5 6 6 6 11 1 17 -2 13 -5z m290 -3 c48 -2 50 -81
2 -81 -11 0 -18 -3 -16 -8 9 -13 -129 2 -146 17 -21 17 -22 39 -3 60 14 15 32
17 163 12z m80 -53 c-3 -7 -5 -2 -5 12 0 14 2 19 5 13 2 -7 2 -19 0 -25z m61
-3 c-3 -3 -9 2 -12 12 -6 14 -5 15 5 6 7 -7 10 -15 7 -18z m-314 -41 c5 -14 4
-15 -9 -4 -17 14 -19 20 -6 20 5 0 12 -7 15 -16z m206 -4 c-8 -5 -19 -10 -25
-10 -5 0 -3 5 5 10 8 5 20 10 25 10 6 0 3 -5 -5 -10z"/>
<path d="M1146 1787 c-38 -28 -13 -97 35 -97 44 0 65 63 31 93 -22 20 -42 21
-66 4z m64 -17 c0 -5 -4 -10 -10 -10 -5 0 -10 5 -10 10 0 6 5 10 10 10 6 0 10
-4 10 -10z"/>
<path d="M1744 1519 c-5 -9 6 -81 22 -136 2 -7 17 -13 33 -13 37 0 48 19 57
95 6 47 4 57 -7 53 -8 -3 -17 -20 -20 -39 -7 -35 -7 -34 -15 16 -6 35 -9 39
-24 30 -6 -4 -8 -21 -5 -43 5 -28 4 -33 -4 -22 -6 8 -11 25 -11 37 0 25 -15
39 -26 22z"/>
<path d="M1022 1361 c-86 -30 -154 -110 -168 -199 -6 -39 -8 -41 -24 -27 -24
21 -35 19 -61 -12 -15 -20 -20 -22 -14 -8 13 35 18 65 9 65 -5 0 -19 3 -31 6
-18 5 -25 0 -37 -27 l-15 -34 5 36 c5 35 4 37 -25 41 -37 5 -41 2 -41 -29 0
-12 -4 -23 -10 -23 -5 0 -10 6 -10 13 0 27 -17 38 -45 31 -25 -6 -27 -10 -22
-43 6 -33 5 -34 -8 -17 -8 11 -15 23 -15 28 0 13 -24 9 -48 -10 l-22 -17 25
-38 c14 -20 28 -37 30 -37 2 0 23 10 46 22 70 36 171 23 232 -30 16 -14 20
-13 47 19 19 22 30 29 30 19 1 -8 3 -35 5 -60 2 -25 9 -119 15 -210 6 -91 14
-173 16 -182 4 -13 16 -18 45 -18 l39 0 0 -155 0 -155 -39 0 c-58 0 -91 -30
-91 -85 0 -33 6 -50 22 -65 21 -19 34 -20 323 -20 288 0 303 1 320 20 22 24
23 107 1 128 -8 8 -37 17 -65 20 l-51 5 0 156 0 157 34 -4 c28 -3 34 0 39 19
3 12 14 131 23 264 21 292 18 312 -60 390 -66 66 -124 85 -255 85 -66 -1 -112
-6 -149 -19z m408 -92 c13 -23 12 -29 0 -29 -14 0 -69 63 -64 72 7 10 52 -20
64 -43z m-400 -68 c-13 -26 -36 -40 -27 -18 3 9 3 18 -1 20 -4 2 -2 2 5 1 7
-2 15 1 18 6 11 18 16 10 5 -9z m338 9 c-10 -7 -14 -18 -11 -32 5 -22 5 -23
-10 -3 -13 17 -13 21 2 32 9 7 21 12 26 12 6 0 3 -4 -7 -9z m-48 -12 c0 -5
-47 -8 -105 -8 -58 0 -105 3 -105 8 0 4 47 7 105 7 58 0 105 -3 105 -7z m141
-31 c-8 -8 -11 -3 -11 19 1 25 2 27 11 11 8 -14 8 -22 0 -30z m-373 26 c-10
-2 -26 -2 -35 0 -10 3 -2 5 17 5 19 0 27 -2 18 -5z m-126 -55 c-6 -6 -15 -8
-19 -4 -4 4 -1 11 7 16 19 12 27 3 12 -12z m-212 8 c0 -3 -4 -8 -10 -11 -5 -3
-10 -1 -10 4 0 6 5 11 10 11 6 0 10 -2 10 -4z m550 -25 c5 -11 10 -74 10 -140
0 -109 -2 -121 -19 -131 -28 -14 -214 -13 -229 2 -15 15 -17 241 -2 269 10 17
22 19 120 19 98 0 110 -2 120 -19z m-575 -1 c3 -6 -1 -7 -9 -4 -18 7 -21 14
-7 14 6 0 13 -4 16 -10z m-210 -10 c4 -6 -1 -7 -11 -3 -13 5 -15 3 -9 -7 5 -9
4 -11 -4 -6 -6 4 -9 12 -6 17 8 12 22 12 30 -1z m289 -31 c-3 -5 -10 -7 -15
-3 -5 3 -7 10 -3 15 3 5 10 7 15 3 5 -3 7 -10 3 -15z m553 -281 c-3 -8 -6 -5
-6 6 -1 11 2 17 5 13 3 -3 4 -12 1 -19z m-390 -3 c0 -8 -4 -12 -9 -9 -4 3 -8
9 -8 15 0 5 4 9 8 9 5 0 9 -7 9 -15z m40 9 c-3 -3 -12 -4 -19 -1 -8 3 -5 6 6
6 11 1 17 -2 13 -5z m340 -22 c6 -4 -48 -6 -120 -4 -194 4 -213 9 -42 10 83 1
155 -2 162 -6z m18 -52 c3 -6 -1 -7 -9 -4 -18 7 -21 14 -7 14 6 0 13 -4 16
-10z m75 -70 c-6 -11 -21 -20 -33 -20 l-21 0 22 16 c12 8 22 25 22 38 0 12 3
26 8 30 12 13 14 -41 2 -64z m-45 35 c0 -14 -3 -25 -7 -25 -10 0 -10 34 -1 43
3 4 7 7 7 7 1 0 1 -11 1 -25z m-335 -230 c0 -131 -2 -155 -15 -155 -13 0 -15
24 -15 155 0 131 2 155 15 155 13 0 15 -24 15 -155z m90 0 c0 -131 -2 -155
-15 -155 -13 0 -15 24 -15 155 0 131 2 155 15 155 13 0 15 -24 15 -155z m90 0
c0 -131 -2 -155 -15 -155 -13 0 -15 24 -15 155 0 131 2 155 15 155 13 0 15
-24 15 -155z m89 17 c1 -76 -1 -146 -5 -155 -17 -45 -24 -4 -24 138 0 126 3
155 14 155 11 0 14 -27 15 -138z m-394 -212 c-3 -5 -12 -10 -20 -10 -7 0 -17
-10 -21 -22 -9 -30 29 -62 57 -48 20 11 26 54 9 65 -21 13 -8 20 35 20 48 0
54 -5 30 -25 -21 -17 -19 -36 7 -54 15 -11 26 -12 40 -5 19 10 25 54 8 64 -23
14 -7 23 40 21 50 -1 63 -9 35 -20 -21 -8 -19 -53 3 -65 14 -7 25 -6 40 5 28
19 28 39 1 57 -11 8 -17 17 -12 19 13 7 233 2 240 -5 3 -4 -1 -7 -10 -7 -18 0
-30 -30 -21 -53 15 -39 74 -24 74 19 0 13 -7 27 -15 30 -8 4 -15 10 -15 15 0
6 9 5 20 -1 23 -12 28 -68 8 -88 -15 -15 -523 -17 -562 -2 -38 14 -35 78 4 93
24 9 32 8 25 -3z"/>
<path d="M1092 1094 c4 -21 22 -23 26 -1 2 10 -3 17 -13 17 -10 0 -15 -6 -13
-16z"/>
<path d="M1172 1094 c4 -21 22 -23 26 -1 2 10 -3 17 -13 17 -10 0 -15 -6 -13
-16z"/>
<path d="M1240 1095 c0 -8 7 -15 15 -15 8 0 15 7 15 15 0 8 -7 15 -15 15 -8 0
-15 -7 -15 -15z"/>
<path d="M1075 1001 c-7 -13 17 -24 40 -19 9 1 16 8 16 13 0 14 -48 19 -56 6z"/>
<path d="M1157 1004 c-11 -12 3 -24 29 -24 15 0 24 6 24 15 0 15 -40 21 -53 9z"/>
<path d="M1227 1004 c-12 -13 4 -24 34 -24 20 0 29 4 27 13 -5 13 -50 22 -61
11z"/>
<path d="M1087 924 c-4 -4 -7 -16 -7 -26 0 -13 7 -18 26 -18 21 0 25 4 22 22
-3 23 -27 35 -41 22z"/>
<path d="M1153 914 c-4 -11 1 -22 12 -31 16 -11 21 -11 33 1 8 8 12 22 9 30
-8 21 -46 21 -54 0z"/>
<path d="M1237 924 c-4 -4 -7 -16 -7 -26 0 -13 7 -18 26 -18 21 0 25 4 22 22
-3 23 -27 35 -41 22z"/>
<path d="M1288 259 c-24 -13 -23 -56 0 -68 14 -7 25 -6 40 5 26 18 28 37 6 58
-18 19 -23 19 -46 5z"/>
<path d="M1744 1342 c-16 -75 -60 -133 -116 -154 -31 -11 -33 -20 -17 -67 11
-32 27 -38 59 -21 18 10 18 13 4 52 l-15 43 33 -32 c33 -32 33 -32 58 -13 l25
19 -23 31 -24 31 32 -16 c18 -9 33 -15 35 -13 1 2 8 14 15 27 13 26 12 28 -36
56 -13 8 -7 10 25 7 40 -4 41 -3 41 27 0 33 -4 36 -57 45 -29 5 -33 3 -39 -22z"/>
<path d="M1531 1141 l-25 -19 28 -36 c31 -41 33 -42 64 -21 l22 16 -26 39
c-15 22 -29 40 -33 40 -3 0 -17 -9 -30 -19z"/>
<path d="M368 1080 c-25 -16 -49 -34 -53 -40 -13 -21 5 -24 36 -6 39 23 46 16
14 -14 -23 -22 -34 -50 -18 -50 4 0 20 12 36 28 30 27 29 14 -1 -21 -17 -19
-11 -32 11 -24 17 7 77 93 77 111 0 14 -32 46 -46 46 -5 0 -30 -14 -56 -30z"/>
</g>
</svg>
